<mxfile host="app.diagrams.net" agent="Mozilla/5.0 (Windows NT 10.0; Win64; x64) AppleWebKit/537.36 (KHTML, like Gecko) Chrome/130.0.0.0 Safari/537.36" version="24.8.6">
  <diagram name="Trang-1" id="Hf2QPp31xFDONnnzZcnL">
    <mxGraphModel dx="2843" dy="1233" grid="0" gridSize="10" guides="1" tooltips="1" connect="1" arrows="1" fold="1" page="1" pageScale="1" pageWidth="827" pageHeight="1169" math="0" shadow="0">
      <root>
        <mxCell id="0" />
        <mxCell id="1" parent="0" />
        <mxCell id="-JNER6x50Fh1cIWLmk7c-2" value="Start Program" style="ellipse;whiteSpace=wrap;html=1;fillColor=#dae8fc;strokeColor=#6c8ebf;" vertex="1" parent="1">
          <mxGeometry x="87" y="371" width="147" height="84" as="geometry" />
        </mxCell>
        <mxCell id="-JNER6x50Fh1cIWLmk7c-6" style="edgeStyle=orthogonalEdgeStyle;rounded=0;orthogonalLoop=1;jettySize=auto;html=1;entryX=0;entryY=0.5;entryDx=0;entryDy=0;fillColor=#dae8fc;strokeColor=#6c8ebf;" edge="1" parent="1" source="-JNER6x50Fh1cIWLmk7c-3" target="-JNER6x50Fh1cIWLmk7c-4">
          <mxGeometry relative="1" as="geometry" />
        </mxCell>
        <mxCell id="-JNER6x50Fh1cIWLmk7c-3" value="&lt;br&gt;Enter number of processes (n) &amp;nbsp;and process information   &lt;div&gt;&lt;br/&gt;&lt;/div&gt;" style="shape=parallelogram;perimeter=parallelogramPerimeter;whiteSpace=wrap;html=1;fixedSize=1;fillColor=#dae8fc;strokeColor=#6c8ebf;" vertex="1" parent="1">
          <mxGeometry x="316" y="365" width="276" height="111" as="geometry" />
        </mxCell>
        <mxCell id="-JNER6x50Fh1cIWLmk7c-8" style="edgeStyle=orthogonalEdgeStyle;rounded=0;orthogonalLoop=1;jettySize=auto;html=1;entryX=0;entryY=0.5;entryDx=0;entryDy=0;fillColor=#dae8fc;strokeColor=#6c8ebf;" edge="1" parent="1" source="-JNER6x50Fh1cIWLmk7c-4" target="-JNER6x50Fh1cIWLmk7c-7">
          <mxGeometry relative="1" as="geometry" />
        </mxCell>
        <mxCell id="-JNER6x50Fh1cIWLmk7c-4" value="&lt;br&gt;Initialize Remaining Time = Burst&amp;nbsp;Time for each process  &lt;div&gt;&lt;br/&gt;&lt;/div&gt;" style="rounded=0;whiteSpace=wrap;html=1;fillColor=#dae8fc;strokeColor=#6c8ebf;" vertex="1" parent="1">
          <mxGeometry x="700" y="369" width="218" height="103" as="geometry" />
        </mxCell>
        <mxCell id="-JNER6x50Fh1cIWLmk7c-5" style="edgeStyle=orthogonalEdgeStyle;rounded=0;orthogonalLoop=1;jettySize=auto;html=1;entryX=0.033;entryY=0.425;entryDx=0;entryDy=0;entryPerimeter=0;fillColor=#dae8fc;strokeColor=#6c8ebf;" edge="1" parent="1" source="-JNER6x50Fh1cIWLmk7c-2" target="-JNER6x50Fh1cIWLmk7c-3">
          <mxGeometry relative="1" as="geometry" />
        </mxCell>
        <mxCell id="-JNER6x50Fh1cIWLmk7c-7" value="CurrentTime = 0" style="rounded=0;whiteSpace=wrap;html=1;fillColor=#dae8fc;strokeColor=#6c8ebf;" vertex="1" parent="1">
          <mxGeometry x="1019" y="389" width="164" height="63" as="geometry" />
        </mxCell>
        <mxCell id="-JNER6x50Fh1cIWLmk7c-12" style="edgeStyle=orthogonalEdgeStyle;rounded=0;orthogonalLoop=1;jettySize=auto;html=1;entryX=1;entryY=0.5;entryDx=0;entryDy=0;fillColor=#dae8fc;strokeColor=#6c8ebf;" edge="1" parent="1" source="-JNER6x50Fh1cIWLmk7c-9" target="-JNER6x50Fh1cIWLmk7c-11">
          <mxGeometry relative="1" as="geometry" />
        </mxCell>
        <mxCell id="-JNER6x50Fh1cIWLmk7c-9" value="&lt;br&gt; completed = 0&amp;nbsp;&lt;br&gt;&amp;nbsp;shortest = -1&amp;nbsp;&lt;br&gt;&amp;nbsp;minRemainingTime = âˆž &lt;div&gt;&lt;br/&gt;&lt;/div&gt;" style="rounded=0;whiteSpace=wrap;html=1;fillColor=#dae8fc;strokeColor=#6c8ebf;" vertex="1" parent="1">
          <mxGeometry x="979" y="537" width="223" height="112" as="geometry" />
        </mxCell>
        <mxCell id="-JNER6x50Fh1cIWLmk7c-10" style="edgeStyle=orthogonalEdgeStyle;rounded=0;orthogonalLoop=1;jettySize=auto;html=1;entryX=0.546;entryY=0.043;entryDx=0;entryDy=0;entryPerimeter=0;fillColor=#dae8fc;strokeColor=#6c8ebf;" edge="1" parent="1" source="-JNER6x50Fh1cIWLmk7c-7" target="-JNER6x50Fh1cIWLmk7c-9">
          <mxGeometry relative="1" as="geometry" />
        </mxCell>
        <mxCell id="-JNER6x50Fh1cIWLmk7c-14" value="Yes" style="edgeStyle=orthogonalEdgeStyle;rounded=0;orthogonalLoop=1;jettySize=auto;html=1;entryX=1;entryY=0.5;entryDx=0;entryDy=0;fillColor=#dae8fc;strokeColor=#6c8ebf;" edge="1" parent="1" source="-JNER6x50Fh1cIWLmk7c-11" target="-JNER6x50Fh1cIWLmk7c-13">
          <mxGeometry relative="1" as="geometry" />
        </mxCell>
        <mxCell id="-JNER6x50Fh1cIWLmk7c-19" value="No" style="edgeStyle=orthogonalEdgeStyle;rounded=0;orthogonalLoop=1;jettySize=auto;html=1;fillColor=#dae8fc;strokeColor=#6c8ebf;" edge="1" parent="1" source="-JNER6x50Fh1cIWLmk7c-11" target="-JNER6x50Fh1cIWLmk7c-20">
          <mxGeometry relative="1" as="geometry">
            <mxPoint x="784" y="769.9281616210938" as="targetPoint" />
          </mxGeometry>
        </mxCell>
        <mxCell id="-JNER6x50Fh1cIWLmk7c-11" value="&lt;br&gt;Find process with&amp;nbsp;&lt;br&gt;&amp;nbsp;shortest Remaining Time&amp;nbsp;&lt;br&gt;&amp;nbsp;and Arrival Time &amp;lt;= currentTime&lt;div&gt;&lt;br/&gt;&lt;/div&gt;" style="rounded=0;whiteSpace=wrap;html=1;fillColor=#dae8fc;strokeColor=#6c8ebf;" vertex="1" parent="1">
          <mxGeometry x="656" y="536" width="256" height="113" as="geometry" />
        </mxCell>
        <mxCell id="-JNER6x50Fh1cIWLmk7c-16" style="edgeStyle=orthogonalEdgeStyle;rounded=0;orthogonalLoop=1;jettySize=auto;html=1;entryX=1;entryY=0.5;entryDx=0;entryDy=0;fillColor=#dae8fc;strokeColor=#6c8ebf;" edge="1" parent="1" source="-JNER6x50Fh1cIWLmk7c-13" target="-JNER6x50Fh1cIWLmk7c-15">
          <mxGeometry relative="1" as="geometry" />
        </mxCell>
        <mxCell id="-JNER6x50Fh1cIWLmk7c-13" value="&lt;br&gt;If process not started, set&amp;nbsp;&lt;br&gt;&amp;nbsp;Start = currentTime&amp;nbsp;&lt;br&gt;&amp;nbsp;Calculate Response Time  &lt;div&gt;&lt;br/&gt;&lt;/div&gt;" style="rounded=0;whiteSpace=wrap;html=1;fillColor=#dae8fc;strokeColor=#6c8ebf;" vertex="1" parent="1">
          <mxGeometry x="239" y="539.5" width="245" height="106" as="geometry" />
        </mxCell>
        <mxCell id="-JNER6x50Fh1cIWLmk7c-17" value="No" style="edgeStyle=orthogonalEdgeStyle;rounded=0;orthogonalLoop=1;jettySize=auto;html=1;fillColor=#dae8fc;strokeColor=#6c8ebf;" edge="1" parent="1" source="-JNER6x50Fh1cIWLmk7c-15">
          <mxGeometry relative="1" as="geometry">
            <mxPoint x="55" y="758.0763549804688" as="targetPoint" />
          </mxGeometry>
        </mxCell>
        <mxCell id="-JNER6x50Fh1cIWLmk7c-15" value="&lt;br&gt;Execute process&amp;nbsp;&lt;br&gt;&amp;nbsp;Remaining Time - 1 &lt;div&gt;&lt;br/&gt;&lt;/div&gt;" style="rounded=0;whiteSpace=wrap;html=1;fillColor=#dae8fc;strokeColor=#6c8ebf;" vertex="1" parent="1">
          <mxGeometry x="-46" y="551" width="202" height="84" as="geometry" />
        </mxCell>
        <mxCell id="-JNER6x50Fh1cIWLmk7c-18" value="&lt;br&gt;Increment&lt;br&gt;currentTime" style="rounded=0;whiteSpace=wrap;html=1;fillColor=#dae8fc;strokeColor=#6c8ebf;" vertex="1" parent="1">
          <mxGeometry x="-55" y="759" width="202" height="84" as="geometry" />
        </mxCell>
        <mxCell id="-JNER6x50Fh1cIWLmk7c-21" value="Yes" style="edgeStyle=orthogonalEdgeStyle;rounded=0;orthogonalLoop=1;jettySize=auto;html=1;fillColor=#dae8fc;strokeColor=#6c8ebf;" edge="1" parent="1" source="-JNER6x50Fh1cIWLmk7c-20">
          <mxGeometry relative="1" as="geometry">
            <mxPoint x="783" y="973.6319580078125" as="targetPoint" />
          </mxGeometry>
        </mxCell>
        <mxCell id="-JNER6x50Fh1cIWLmk7c-20" value="If no process is found" style="rhombus;whiteSpace=wrap;html=1;fillColor=#dae8fc;strokeColor=#6c8ebf;" vertex="1" parent="1">
          <mxGeometry x="666" y="766" width="234" height="80" as="geometry" />
        </mxCell>
        <mxCell id="-JNER6x50Fh1cIWLmk7c-23" style="edgeStyle=orthogonalEdgeStyle;rounded=0;orthogonalLoop=1;jettySize=auto;html=1;fillColor=#dae8fc;strokeColor=#6c8ebf;" edge="1" parent="1" source="-JNER6x50Fh1cIWLmk7c-22" target="-JNER6x50Fh1cIWLmk7c-24">
          <mxGeometry relative="1" as="geometry">
            <mxPoint x="463.34251403808594" y="1017" as="targetPoint" />
          </mxGeometry>
        </mxCell>
        <mxCell id="-JNER6x50Fh1cIWLmk7c-22" value="If Remaining Time ==&amp;nbsp;&lt;br&gt;&amp;nbsp;0 (Process complete)" style="rhombus;whiteSpace=wrap;html=1;fillColor=#dae8fc;strokeColor=#6c8ebf;" vertex="1" parent="1">
          <mxGeometry x="635.5" y="977" width="295" height="80" as="geometry" />
        </mxCell>
        <mxCell id="-JNER6x50Fh1cIWLmk7c-26" style="edgeStyle=orthogonalEdgeStyle;rounded=0;orthogonalLoop=1;jettySize=auto;html=1;fillColor=#dae8fc;strokeColor=#6c8ebf;" edge="1" parent="1" source="-JNER6x50Fh1cIWLmk7c-24">
          <mxGeometry relative="1" as="geometry">
            <mxPoint x="194.4536590576172" y="1017" as="targetPoint" />
          </mxGeometry>
        </mxCell>
        <mxCell id="-JNER6x50Fh1cIWLmk7c-24" value="Update Finish, Waiting, TaT Completed += 1" style="rounded=0;whiteSpace=wrap;html=1;fillColor=#dae8fc;strokeColor=#6c8ebf;" vertex="1" parent="1">
          <mxGeometry x="304" y="969.25" width="209.34" height="95.5" as="geometry" />
        </mxCell>
        <mxCell id="-JNER6x50Fh1cIWLmk7c-29" value="Yes" style="edgeStyle=orthogonalEdgeStyle;rounded=0;orthogonalLoop=1;jettySize=auto;html=1;entryX=0.5;entryY=0;entryDx=0;entryDy=0;fillColor=#dae8fc;strokeColor=#6c8ebf;" edge="1" parent="1" source="-JNER6x50Fh1cIWLmk7c-27" target="-JNER6x50Fh1cIWLmk7c-28">
          <mxGeometry relative="1" as="geometry" />
        </mxCell>
        <mxCell id="-JNER6x50Fh1cIWLmk7c-27" value="If Completed = n&lt;span style=&quot;color: rgba(0, 0, 0, 0); font-family: monospace; font-size: 0px; text-align: start; text-wrap-mode: nowrap;&quot;&gt;%3CmxGraphModel%3E%3Croot%3E%3CmxCell%20id%3D%220%22%2F%3E%3CmxCell%20id%3D%221%22%20parent%3D%220%22%2F%3E%3CmxCell%20id%3D%222%22%20value%3D%22%26lt%3Bbr%26gt%3BIncrement%26lt%3Bbr%26gt%3BcurrentTime%22%20style%3D%22rounded%3D0%3BwhiteSpace%3Dwrap%3Bhtml%3D1%3B%22%20vertex%3D%221%22%20parent%3D%221%22%3E%3CmxGeometry%20x%3D%22-55%22%20y%3D%22759%22%20width%3D%22202%22%20height%3D%2284%22%20as%3D%22geometry%22%2F%3E%3C%2FmxCell%3E%3C%2Froot%3E%3C%2FmxGraphModel%3E&lt;/span&gt;" style="rounded=0;whiteSpace=wrap;html=1;fillColor=#dae8fc;strokeColor=#6c8ebf;" vertex="1" parent="1">
          <mxGeometry x="-7" y="973" width="202" height="84" as="geometry" />
        </mxCell>
        <mxCell id="-JNER6x50Fh1cIWLmk7c-30" style="edgeStyle=orthogonalEdgeStyle;rounded=0;orthogonalLoop=1;jettySize=auto;html=1;fillColor=#dae8fc;strokeColor=#6c8ebf;" edge="1" parent="1" source="-JNER6x50Fh1cIWLmk7c-28" target="-JNER6x50Fh1cIWLmk7c-31">
          <mxGeometry relative="1" as="geometry">
            <mxPoint x="437.41661071777344" y="1181" as="targetPoint" />
          </mxGeometry>
        </mxCell>
        <mxCell id="-JNER6x50Fh1cIWLmk7c-28" value="Print results, Calculate AWT and ATaT" style="rounded=0;whiteSpace=wrap;html=1;fillColor=#dae8fc;strokeColor=#6c8ebf;" vertex="1" parent="1">
          <mxGeometry x="-7" y="1139" width="202" height="84" as="geometry" />
        </mxCell>
        <mxCell id="-JNER6x50Fh1cIWLmk7c-31" value="End" style="ellipse;whiteSpace=wrap;html=1;fillColor=#dae8fc;strokeColor=#6c8ebf;" vertex="1" parent="1">
          <mxGeometry x="437.9966107177734" y="1141" width="120" height="80" as="geometry" />
        </mxCell>
      </root>
    </mxGraphModel>
  </diagram>
</mxfile>
